# xmcd CD database file
#
# Track frame offsets:
#	150
#	24562
#	62078
#	99365
#	122460
#	154671
#	199537
#	231947
#
# Disc length: 3524 seconds
#
# Revision: 0
# Processed by: cddbd v1.5.2PL0 Copyright (c) Steve Scherf et al.
# Submitted via: CDex 1.51
#
DISCID=5b0dc208
DTITLE=MARIA PIA DE VITO special guest FRANCESCO CAFISO - Songs from the underground - JAZZ ITALIANO LIVE 2007
DYEAR=2007
DGENRE=Jazz
TTITLE0=MARIA PIA DE VITO special guest FRANCESCO CAFISO - Up from the skies
TTITLE1=MARIA PIA DE VITO special guest FRANCESCO CAFISO - It never entered my mind
TTITLE2=MARIA PIA DE VITO special guest FRANCESCO CAFISO - My old man
TTITLE3=MARIA PIA DE VITO special guest FRANCESCO CAFISO - Almost blue
TTITLE4=MARIA PIA DE VITO special guest FRANCESCO CAFISO - Downtown
TTITLE5=MARIA PIA DE VITO special guest FRANCESCO CAFISO - Secret marriage
TTITLE6=MARIA PIA DE VITO special guest FRANCESCO CAFISO - Songs from the underground
TTITLE7=MARIA PIA DE VITO special guest FRANCESCO CAFISO - Zoobab de ouab - Word to herb
EXTD=YEAR: 2007
EXTT0=
EXTT1=
EXTT2=
EXTT3=
EXTT4=
EXTT5=
EXTT6=
EXTT7=
PLAYORDER=
